<?xml version="1.0" encoding="UTF-8"?>
<!DOCTYPE svg PUBLIC "-//W3C//DTD SVG 1.1//EN" "http://www.w3.org/Graphics/SVG/1.1/DTD/svg11.dtd">
<!-- Creator: CorelDRAW X7 -->
<svg xmlns="http://www.w3.org/2000/svg" xml:space="preserve" width="500px" height="501px" version="1.1" style="shape-rendering:geometricPrecision; text-rendering:geometricPrecision; image-rendering:optimizeQuality; fill-rule:evenodd; clip-rule:evenodd"
viewBox="0 0 500 501"
 xmlns:xlink="http://www.w3.org/1999/xlink">
 <defs>
  <style type="text/css">
   <![CDATA[
    .fil3 {fill:#FEFEFE}
    .fil0 {fill:#ED3237}
    .fil1 {fill:#1A75BB}
    .fil2 {fill:#FEFEFE;fill-rule:nonzero}
    .fil4 {fill:#1A75BB;fill-rule:nonzero}
   ]]>
  </style>
 </defs>
 <g id="Camada_x0020_1">
  <metadata id="CorelCorpID_0Corel-Layer"/>
  <path class="fil0" d="M250 37c116,0 210,94 210,210 0,116 -94,210 -210,210 -116,0 -210,-94 -210,-210 0,-116 94,-210 210,-210z"/>
  <path class="fil1" d="M250 84c91,0 164,73 164,163 0,91 -73,164 -164,164 -90,0 -164,-73 -164,-164 0,-90 74,-163 164,-163z"/>
  <path class="fil2" d="M250 76c47,0 90,19 121,50 31,31 51,74 51,121 0,48 -20,91 -51,122 -31,31 -74,50 -121,50 -47,0 -90,-19 -121,-50 -31,-31 -50,-74 -50,-122 0,-47 19,-90 50,-121 31,-31 74,-50 121,-50zm115 57c-30,-29 -70,-48 -115,-48 -45,0 -85,19 -114,48 -30,29 -48,70 -48,114 0,45 18,85 48,115 29,29 69,47 114,47 45,0 85,-18 115,-47 29,-30 47,-70 47,-115 0,-44 -18,-85 -47,-114z"/>
  <path class="fil1" d="M172 368c-14,-30 -21,-41 1,-74 2,4 1,-1 1,6 0,10 -2,13 0,27 4,30 23,54 54,62 72,19 164,-41 169,-135 8,-140 -171,-210 -260,-99 -58,73 -29,179 35,213z"/>
  <path class="fil3" d="M288 213c-1,11 -10,16 -10,28 8,8 22,12 31,23 6,7 3,12 5,21 3,11 25,13 -1,41 -12,12 -51,0 -63,10 -4,4 -11,18 -12,26 -1,8 2,8 9,9 6,0 13,0 19,-1 126,-11 162,-184 41,-217 -24,-7 -30,-14 -49,-24 -25,-13 -33,-7 -56,3 -21,8 -38,14 -40,34 -3,30 -4,36 -24,50 -22,16 -32,16 -6,35 46,36 47,-4 106,-15 15,-3 32,-23 50,-23zm5 -59c-22,7 -19,46 -46,41 -29,-6 -25,-48 -28,-62l-3 8c-2,22 0,61 26,67 17,4 29,-6 35,-16 3,-5 15,-32 16,-38zm-115 37c6,-6 5,-19 4,-26l-12 0c-1,8 4,21 8,26zm110 88c3,4 5,6 12,7 3,-3 4,-4 2,-9 -5,-3 -10,-2 -14,2z"/>
  <path class="fil3" d="M252 46c-1,0 -3,1 -3,3 0,1 0,2 0,3 0,1 0,2 1,3 1,0 2,0 2,0 1,0 1,0 1,-1 1,0 2,-2 2,-3 0,0 0,-1 0,-1 0,-1 0,-2 0,-2 -1,-1 -1,-2 -2,-2 0,0 -1,0 -1,0z"/>
  <path class="fil3" d="M243 46c-1,0 -2,1 -2,2 0,0 0,1 0,1 0,1 0,1 0,1 0,2 1,4 2,5 0,0 1,0 1,0 0,0 0,0 0,0 1,0 1,0 1,0 0,0 1,0 1,-1 1,0 1,-1 1,-2 0,-1 0,-1 0,-2 0,-2 -2,-3 -3,-4 0,0 -1,0 -1,0l0 0z"/>
  <path class="fil3" d="M258 53c-2,0 -3,1 -3,3 -1,0 -1,1 -1,2 0,0 0,0 0,0 0,1 0,1 0,1 0,1 1,2 1,2 1,0 1,0 1,0 1,0 2,0 3,-1 1,-1 1,-2 1,-3 0,0 0,-1 0,-1 0,-1 0,-2 -1,-3 -1,0 -1,0 -1,0l0 0z"/>
  <path class="fil3" d="M237 54c0,0 -1,0 -1,1 0,0 -1,1 -1,1 0,2 1,3 2,4 0,1 1,2 2,2 1,0 2,0 2,-1 1,0 1,-1 1,-2 0,-1 0,-1 0,-1 0,-1 -1,-3 -2,-3 -1,-1 -1,-1 -2,-1 0,0 0,0 -1,0l0 0z"/>
  <path class="fil3" d="M248 58c-1,1 -2,1 -2,1 -1,0 -2,1 -3,2 -1,2 -2,4 -3,5 0,1 0,1 0,1 0,0 0,1 0,1 1,1 1,2 2,2 0,0 1,0 2,0 0,0 1,0 2,-1 1,0 1,0 2,0 1,0 1,0 1,0 1,0 1,0 3,0 1,1 1,1 1,1 2,0 3,0 4,-1 0,-1 0,-2 0,-2 -1,-1 -1,-2 -2,-3 -1,-2 -2,-3 -3,-4 -1,-1 -2,-1 -3,-2 0,0 -1,0 -1,0z"/>
  <path class="fil3" d="M311 53c-1,0 -2,2 -3,3 0,1 0,2 0,3 0,1 1,2 2,3 0,0 1,0 1,0 1,0 1,0 2,-1 0,0 1,-1 1,-3 0,0 0,0 0,-1 0,-1 0,-2 0,-2 0,-1 -1,-2 -2,-2 0,0 -1,0 -1,0z"/>
  <path class="fil3" d="M302 53c-1,0 -1,1 -2,2 0,0 0,1 0,1 0,1 0,1 0,2 0,1 1,3 2,4 0,0 1,0 1,0 0,0 0,0 0,0 1,0 1,0 1,0 1,0 1,0 1,0 1,-1 1,-2 1,-3 0,0 0,-1 0,-2 0,-2 -1,-3 -3,-4 0,0 -1,0 -1,0l0 0z"/>
  <path class="fil3" d="M317 60c-1,1 -2,1 -3,3 -1,0 -1,1 -1,2 0,0 0,0 0,1 0,0 0,0 0,0 0,1 1,2 2,2 0,1 0,1 1,1 1,0 1,-1 2,-2 1,0 1,-2 2,-3 0,0 0,-1 0,-1 0,-1 -1,-2 -2,-3 0,0 -1,0 -1,0l0 0z"/>
  <path class="fil3" d="M297 61c-1,0 -2,1 -2,1 0,1 0,1 0,1 0,2 0,3 1,4 1,1 1,2 2,2 1,0 2,0 2,-1 1,0 1,-1 1,-2 0,0 0,-1 0,-1 0,-1 -1,-3 -2,-3 0,-1 -1,-1 -1,-1 -1,0 -1,0 -1,0l0 0z"/>
  <path class="fil3" d="M307 66c-1,0 -1,0 -2,0 -1,1 -2,1 -3,2 -1,2 -2,4 -2,6 0,0 -1,0 -1,0 0,0 0,1 1,1 0,1 0,2 1,2 1,0 1,0 2,0 0,0 1,0 2,-1 1,0 2,0 3,0 0,0 0,0 0,0 1,0 2,0 3,0 1,1 1,1 1,1 2,0 3,0 4,-1 0,-1 0,-1 0,-2 0,-1 -1,-2 -1,-3 -2,-2 -3,-3 -4,-4 -1,-1 -2,-1 -3,-1 0,0 -1,0 -1,0z"/>
  <path class="fil3" d="M364 79c-1,1 -2,2 -3,4 0,0 0,1 0,2 0,2 1,3 2,3 0,1 1,1 1,0 1,0 1,0 1,0 1,-1 2,-2 2,-3 0,-1 0,-1 0,-2 0,-1 0,-1 0,-2 -1,-1 -1,-1 -2,-2 0,0 -1,0 -1,0z"/>
  <path class="fil3" d="M355 79c-1,1 -2,1 -2,2 0,1 0,1 0,2 0,0 0,1 0,1 0,2 1,3 2,4 0,0 1,0 1,0 0,1 0,1 0,1 1,0 1,0 1,-1 1,0 1,0 1,0 1,-1 1,-2 1,-3 0,0 0,-1 0,-1 0,-2 -1,-4 -3,-4 0,-1 -1,-1 -1,-1l0 0z"/>
  <path class="fil3" d="M370 87c-1,0 -3,1 -3,2 -1,1 -1,1 -1,2 0,0 0,0 0,1 0,0 0,0 0,1 0,1 1,1 2,2 0,0 0,0 1,0 0,0 1,-1 2,-1 1,-1 1,-2 2,-3 0,-1 0,-1 0,-2 0,-1 -1,-2 -2,-2 0,0 -1,0 -1,0l0 0z"/>
  <path class="fil3" d="M350 87c-1,0 -2,1 -2,2 0,0 0,0 0,1 -1,1 0,2 1,4 0,0 1,1 2,1 1,0 2,0 2,0 1,-1 1,-2 1,-3 0,0 0,0 0,-1 0,-1 -1,-2 -2,-3 0,0 -1,-1 -1,-1 -1,0 -1,0 -1,0l0 0z"/>
  <path class="fil3" d="M360 92c-1,0 -2,0 -2,0 -1,1 -2,2 -3,2 -1,2 -2,4 -3,6 0,0 0,0 0,0 0,1 0,1 0,2 1,0 1,1 2,1 0,0 1,0 2,0 0,0 1,0 2,0 1,-1 1,-1 2,-1 1,0 1,0 1,0 1,0 2,0 3,1 1,0 1,0 1,0 2,1 3,0 4,-1 0,0 0,-1 0,-2 0,-1 -1,-2 -1,-2 -2,-3 -3,-4 -4,-5 -1,-1 -2,-1 -3,-1 0,0 -1,0 -1,0z"/>
  <path class="fil3" d="M409 121c-1,1 -2,2 -3,4 0,0 0,1 0,2 0,2 1,3 2,3 0,1 1,1 1,0 1,0 1,0 1,0 1,-1 2,-2 2,-4 0,0 0,0 0,-1 0,-1 0,-1 0,-2 -1,-1 -1,-1 -2,-2 0,0 -1,0 -1,0z"/>
  <path class="fil3" d="M400 121c-1,1 -2,1 -2,2 0,1 0,1 0,2 0,0 0,1 0,1 0,2 1,3 2,4 0,0 1,0 1,0 0,0 0,0 0,1 1,0 1,-1 1,-1 1,0 1,0 1,0 1,-1 1,-2 1,-3 0,0 0,-1 0,-1 0,-3 -1,-4 -3,-5 0,0 -1,0 -1,0l0 0z"/>
  <path class="fil3" d="M415 129c-1,0 -3,1 -3,2 -1,1 -1,1 -1,2 0,0 0,0 0,1 0,0 0,0 0,1 0,1 1,1 2,2 0,0 0,0 1,0 0,0 1,-1 2,-1 1,-1 1,-2 1,-4 1,0 1,0 1,-1 -1,-1 -1,-2 -2,-2 0,0 -1,0 -1,0l0 0z"/>
  <path class="fil3" d="M395 129c-1,0 -2,1 -2,2 0,0 0,0 0,1 -1,1 0,2 1,4 0,0 1,1 2,1 1,0 2,0 2,0 1,-1 1,-2 1,-3 0,0 0,0 0,-1 0,-1 -1,-2 -2,-3 0,0 -1,-1 -1,-1 -1,0 -1,0 -1,0l0 0z"/>
  <path class="fil3" d="M405 134c-1,0 -2,0 -2,0 -1,1 -2,2 -3,2 -1,2 -2,4 -3,6 0,0 0,0 0,0 0,1 0,1 0,2 1,0 1,1 2,1 0,0 1,0 2,0 0,0 1,0 2,0 1,-1 1,-1 2,-1 1,0 1,0 1,0 1,0 1,0 3,1 1,0 1,0 1,0 2,1 3,0 4,-1 0,0 0,-1 0,-2 -1,-1 -1,-2 -2,-2 -1,-3 -2,-4 -3,-5 -1,-1 -2,-1 -3,-1 0,0 -1,0 -1,0z"/>
  <path class="fil3" d="M438 177c-2,0 -3,1 -4,3 0,1 0,2 0,3 0,1 1,2 2,3 1,0 1,0 2,0 0,0 1,-1 1,-1 1,-1 1,-2 2,-3 0,-1 0,-1 0,-1 0,-1 0,-2 -1,-3 0,0 -1,-1 -2,-1 0,0 0,0 0,0z"/>
  <path class="fil3" d="M429 177c-1,0 -2,1 -2,1 -1,1 -1,1 -1,2 0,0 0,1 0,1 0,2 1,3 2,4 1,0 1,1 1,1 1,0 1,0 1,0 0,0 0,0 1,0 0,0 0,-1 1,-1 0,0 1,-1 1,-2 0,-1 0,-2 0,-2 -1,-2 -2,-4 -4,-4 0,0 0,0 0,0l0 0z"/>
  <path class="fil3" d="M443 184c-1,0 -2,1 -3,2 0,1 0,2 0,2 0,1 0,1 0,1 0,1 0,1 0,1 0,1 0,2 1,2 0,0 1,0 1,0 1,0 2,0 3,-1 0,-1 1,-2 1,-3 0,0 0,-1 0,-1 0,-1 -1,-3 -2,-3 0,0 0,0 -1,0l0 0z"/>
  <path class="fil3" d="M423 184c-1,1 -1,1 -2,2 0,0 0,1 0,1 0,1 0,3 1,4 1,1 2,1 3,2 0,0 1,0 2,-1 0,-1 1,-1 1,-2 0,-1 0,-1 0,-1 -1,-2 -1,-3 -2,-4 -1,0 -2,0 -2,-1 0,0 -1,0 -1,0l0 0z"/>
  <path class="fil3" d="M433 189c0,0 -1,0 -2,1 -1,0 -2,1 -2,2 -2,2 -3,3 -3,5 0,0 0,0 0,1 0,0 0,1 0,1 0,1 1,1 1,2 1,0 2,0 2,0 1,0 1,-1 2,-1 2,-1 2,-1 3,-1 0,0 0,0 1,0 0,0 1,1 2,1 1,0 2,1 2,1 1,0 3,0 3,-2 0,0 0,-1 0,-1 0,-1 0,-2 -1,-3 -1,-2 -2,-3 -3,-4 -2,-1 -2,-2 -4,-2 0,0 0,0 -1,0z"/>
  <path class="fil3" d="M188 55c1,1 2,2 3,4 0,0 0,1 0,2 0,2 -1,3 -2,3 -1,1 -1,1 -2,0 0,0 -1,0 -1,0 -1,-1 -1,-2 -2,-3 0,-1 0,-1 0,-2 0,-1 0,-1 1,-2 0,-1 1,-1 2,-2 0,0 0,0 1,0z"/>
  <path class="fil3" d="M197 55c0,1 1,1 2,2 0,1 0,1 0,2 0,0 0,1 0,1 0,2 -1,3 -2,4 -1,0 -1,0 -1,0 -1,1 -1,1 -1,1 0,0 0,0 -1,-1 0,0 0,0 -1,0 0,-1 -1,-2 -1,-3 0,0 0,-1 0,-1 1,-2 2,-4 4,-4 0,-1 0,-1 1,-1l0 0z"/>
  <path class="fil3" d="M182 63c1,0 2,1 3,2 0,1 0,1 1,2 0,0 0,0 0,1 0,0 0,0 -1,1 0,1 0,1 -1,2 0,0 -1,0 -1,0 -1,0 -2,-1 -2,-1 -1,-1 -2,-2 -2,-3 0,-1 0,-1 0,-2 0,-1 1,-2 2,-2 0,0 0,0 1,0l0 0z"/>
  <path class="fil3" d="M202 63c1,0 2,1 2,2 0,0 0,0 0,1 0,1 0,2 -1,4 -1,0 -2,1 -3,1 0,0 -1,0 -2,0 0,-1 -1,-2 -1,-3 0,0 1,0 1,-1 0,-1 1,-2 2,-3 0,0 1,-1 1,-1 0,0 1,0 1,0l0 0z"/>
  <path class="fil3" d="M192 68c1,0 1,0 2,0 1,1 2,2 2,2 2,2 3,4 3,6 0,0 0,0 0,0 0,1 0,1 0,2 0,0 -1,1 -1,1 -1,0 -1,0 -2,0 -1,0 -1,0 -2,0 -1,-1 -2,-1 -3,-1 0,0 0,0 -1,0 0,0 -1,0 -2,1 -1,0 -2,0 -2,0 -1,1 -3,0 -3,-1 0,0 0,-1 0,-2 0,0 1,-2 1,-2 1,-3 2,-4 4,-5 1,-1 2,-1 3,-1 0,0 1,0 1,0z"/>
  <path class="fil3" d="M135 82c1,0 2,1 3,3 0,1 0,2 0,2 0,2 -1,3 -2,4 0,0 -1,0 -2,0 0,0 0,-1 -1,-1 -1,-1 -1,-2 -1,-3 -1,-1 -1,-1 -1,-1 0,-1 1,-2 1,-3 0,-1 1,-1 2,-1 0,0 0,0 1,0z"/>
  <path class="fil3" d="M144 82c0,0 1,1 2,1 0,1 0,1 0,2 0,0 0,1 0,1 0,2 -1,3 -2,4 0,0 -1,1 -1,1 0,0 0,0 -1,0 0,0 0,0 0,0 -1,0 -1,-1 -1,-1 -1,0 -1,-1 -2,-2 0,-1 0,-2 1,-2 0,-2 1,-4 3,-4 0,0 0,0 1,0l0 0z"/>
  <path class="fil3" d="M129 89c1,0 2,1 3,2 0,1 1,2 1,2 0,1 0,1 0,1 0,1 0,1 0,1 -1,1 -1,2 -2,2 0,0 -1,0 -1,0 -1,0 -2,0 -2,-1 -1,-1 -2,-2 -2,-3 0,0 0,-1 0,-1 0,-1 1,-3 2,-3 0,0 1,0 1,0l0 0z"/>
  <path class="fil3" d="M149 89c1,1 2,1 2,2 0,0 0,1 0,1 0,1 0,3 -1,4 -1,1 -2,1 -2,1 -1,1 -2,1 -3,0 0,-1 0,-1 0,-2 0,-1 0,-1 0,-1 0,-2 1,-3 2,-4 0,0 1,0 1,-1 0,0 1,0 1,0l0 0z"/>
  <path class="fil3" d="M139 94c1,0 1,0 2,1 1,0 2,1 3,2 1,1 2,3 2,5 0,0 0,0 0,0 1,1 1,2 0,2 0,1 -1,1 -1,2 -1,0 -1,0 -2,0 -1,-1 -1,-1 -2,-1 -1,-1 -2,-1 -3,-1 0,0 0,0 0,0 -1,0 -2,0 -3,1 -1,0 -1,1 -2,1 -1,0 -2,0 -3,-2 0,0 0,-1 0,-2 0,0 1,-1 1,-2 2,-2 3,-3 4,-4 1,-1 2,-2 3,-2 0,0 1,0 1,0z"/>
  <path class="fil3" d="M90 124c1,0 2,1 3,3 0,1 0,2 0,2 0,2 -1,3 -2,4 0,0 -1,0 -2,0 0,0 0,-1 -1,-1 -1,-1 -1,-2 -1,-3 -1,-1 -1,-1 -1,-1 0,-1 1,-2 1,-3 0,-1 1,-1 2,-1 0,0 0,0 1,0z"/>
  <path class="fil3" d="M99 124c1,0 1,0 2,1 0,1 0,1 0,2 0,0 0,1 0,1 0,2 -1,3 -2,4 0,0 -1,1 -1,1 0,0 0,0 -1,0 0,0 0,0 0,0 -1,0 -1,-1 -1,-1 -1,-1 -1,-1 -1,-3 -1,0 0,-1 0,-1 0,-2 1,-4 3,-4 0,0 0,0 1,0l0 0z"/>
  <path class="fil3" d="M84 131c1,0 2,1 3,2 0,1 1,2 1,2 0,1 0,1 0,1 0,0 0,1 0,1 -1,1 -1,2 -2,2 0,0 -1,0 -1,0 -1,0 -2,0 -2,-1 -1,-1 -2,-2 -2,-3 0,-1 0,-1 0,-1 0,-2 1,-3 2,-3 0,0 1,0 1,0l0 0z"/>
  <path class="fil3" d="M104 131c1,1 2,1 2,2 0,0 0,1 0,1 0,1 0,3 -1,4 -1,1 -2,1 -2,1 -1,1 -2,0 -3,0 0,-1 0,-1 0,-3 0,0 0,0 0,0 0,-2 1,-3 2,-4 0,0 1,0 1,-1 0,0 1,0 1,0l0 0z"/>
  <path class="fil3" d="M94 136c1,0 1,0 2,1 1,0 2,1 3,2 1,1 2,3 2,5 0,0 0,0 0,0 1,1 1,1 0,2 0,1 -1,1 -1,2 -1,0 -1,0 -2,0 -1,-1 -1,-1 -2,-1 -1,-1 -2,-1 -3,-1 0,0 0,0 0,0 -1,0 -2,0 -3,1 -1,0 -1,1 -2,1 -1,0 -2,-1 -3,-2 0,0 0,-1 0,-2 0,0 1,-1 1,-2 2,-2 3,-4 4,-4 1,-1 2,-2 3,-2 0,0 1,0 1,0z"/>
  <path class="fil3" d="M61 179c2,0 3,2 3,3 0,1 1,2 0,3 0,1 0,2 -1,3 -1,0 -2,0 -2,0 0,0 -1,0 -1,-1 -1,0 -2,-2 -2,-3 0,0 0,-1 0,-1 0,-1 0,-2 0,-2 1,-1 1,-2 2,-2 1,0 1,0 1,0z"/>
  <path class="fil3" d="M70 179c1,0 2,1 2,2 0,0 1,1 1,1 0,1 0,1 0,2 -1,1 -1,3 -3,4 0,0 0,0 -1,0 0,0 0,0 0,0 0,0 -1,0 -1,0 0,0 -1,0 -1,-1 -1,0 -1,-1 -1,-2 0,-1 0,-1 0,-2 0,-2 2,-3 3,-4 1,0 1,0 1,0l0 0z"/>
  <path class="fil3" d="M55 186c2,0 3,1 4,3 0,0 0,1 0,2 0,0 0,0 0,0 0,1 0,1 0,1 0,1 -1,2 -1,2 -1,0 -1,1 -1,1 -1,-1 -2,-1 -3,-2 -1,-1 -1,-2 -1,-3 0,0 0,-1 0,-1 0,-1 0,-2 1,-3 1,0 1,0 1,0l0 0z"/>
  <path class="fil3" d="M76 187c0,0 1,0 1,1 1,1 1,1 1,1 0,2 -1,3 -2,4 0,1 -1,2 -2,2 -1,0 -1,0 -2,-1 -1,0 -1,-1 -1,-2 0,-1 0,-1 0,-1 0,-1 1,-3 2,-3 1,-1 1,-1 2,-1 0,0 0,0 1,0l0 0z"/>
  <path class="fil3" d="M65 192c1,0 2,0 2,0 1,1 2,1 3,2 1,2 2,4 3,5 0,1 0,1 0,1 0,0 0,1 0,1 0,1 -1,2 -2,2 0,0 -1,0 -2,0 0,0 0,0 -1,-1 -2,0 -2,0 -3,0 -1,0 -1,0 -1,0 -1,0 -1,0 -2,0 -1,1 -2,1 -2,1 -2,0 -3,0 -3,-1 -1,-1 -1,-1 0,-2 0,-1 0,-2 1,-3 1,-2 2,-3 3,-4 1,-1 2,-1 3,-1 1,-1 1,-1 1,0z"/>
  <path class="fil3" d="M90 347c2,0 3,2 3,3 1,1 1,2 1,3 -1,1 -1,2 -2,3 -1,0 -1,0 -2,0 0,0 -1,0 -1,-1 -1,0 -2,-1 -2,-3 0,0 0,0 0,-1 0,-1 0,-2 0,-2 1,-1 2,-2 2,-2 1,0 1,0 1,0z"/>
  <path class="fil3" d="M99 347c1,0 2,1 2,2 1,0 1,1 1,1 0,1 0,1 0,2 -1,1 -1,3 -3,4 0,0 0,0 -1,0 0,0 0,0 0,0 0,0 -1,0 -1,0 0,0 0,0 -1,0 0,-1 -1,-2 -1,-3 0,0 0,-1 0,-2 1,-2 2,-3 3,-4 1,0 1,0 1,0l0 0z"/>
  <path class="fil3" d="M84 354c2,1 3,1 4,3 0,0 0,1 0,2 0,0 0,0 0,1 0,0 0,0 0,0 0,1 -1,2 -1,2 -1,1 -1,1 -1,1 -1,0 -2,-1 -3,-2 0,0 -1,-2 -1,-3 0,0 0,-1 0,-1 0,-1 0,-2 1,-3 1,0 1,0 1,0l0 0z"/>
  <path class="fil3" d="M105 355c1,0 1,1 2,1 0,1 0,1 0,1 0,2 -1,3 -1,4 -1,1 -2,2 -3,2 -1,0 -1,0 -2,-1 0,0 -1,-1 -1,-2 0,0 0,-1 0,-1 1,-1 1,-3 2,-3 1,-1 1,-1 2,-1 0,0 0,0 1,0l0 0z"/>
  <path class="fil3" d="M95 360c0,0 1,0 2,0 1,1 2,1 2,2 2,2 3,4 3,6 0,0 0,0 0,0 0,0 0,1 0,1 0,1 -1,2 -2,2 0,0 -1,0 -1,0 -1,0 -1,0 -2,-1 -2,0 -2,0 -3,0 0,0 -1,0 -1,0 -1,0 -1,0 -2,0 -1,1 -2,1 -2,1 -1,0 -3,0 -3,-1 0,-1 -1,-1 0,-2 0,-1 0,-2 1,-3 1,-2 2,-3 3,-4 1,-1 2,-1 3,-1 1,0 1,0 2,0z"/>
  <path class="fil3" d="M62 292c1,0 2,1 3,3 0,1 0,2 0,3 0,1 -1,2 -2,3 0,0 -1,0 -1,0 -1,0 -1,-1 -2,-1 -1,-1 -1,-2 -1,-3 0,-1 0,-1 0,-1 0,-1 0,-2 0,-3 0,0 1,-1 2,-1 0,0 1,0 1,0z"/>
  <path class="fil3" d="M71 292c1,0 1,1 2,1 0,1 0,1 0,2 0,0 0,1 0,1 0,2 -1,3 -2,4 0,1 -1,1 -1,1 0,0 0,0 -1,0 0,0 0,0 0,0 -1,0 -1,-1 -1,-1 -1,0 -1,-1 -1,-2 0,-1 0,-2 0,-2 0,-2 1,-4 3,-4 0,0 1,0 1,0l0 0z"/>
  <path class="fil3" d="M56 299c1,0 2,1 3,2 0,1 1,2 1,2 0,1 0,1 0,1 0,1 0,1 0,1 -1,1 -1,2 -2,2 0,0 0,0 -1,0 -1,0 -1,0 -2,-1 -1,-1 -2,-2 -2,-3 0,0 0,-1 0,-1 0,-1 1,-3 2,-3 0,0 1,0 1,0l0 0z"/>
  <path class="fil3" d="M76 299c1,1 2,1 2,2 0,0 0,1 0,1 0,1 0,3 -1,4 -1,1 -1,1 -2,2 -1,0 -2,0 -2,-1 -1,-1 -1,-1 -1,-2 0,-1 0,-1 0,-1 0,-2 1,-3 2,-4 0,0 1,0 1,-1 1,0 1,0 1,0l0 0z"/>
  <path class="fil3" d="M66 304c1,0 1,0 2,1 1,0 2,1 3,2 1,2 2,3 2,5 0,0 0,0 1,1 0,0 0,1 -1,1 0,1 0,1 -1,2 -1,0 -1,0 -2,0 0,0 -1,-1 -2,-1 -1,-1 -2,-1 -3,-1 0,0 0,0 0,0 -1,0 -2,1 -3,1 -1,0 -1,1 -2,1 -1,0 -2,0 -3,-2 0,0 0,-1 0,-1 0,-1 1,-2 1,-3 2,-2 3,-3 4,-4 1,-1 2,-2 3,-2 0,0 1,0 1,0z"/>
  <path class="fil3" d="M408 351c-2,0 -3,2 -3,3 -1,1 -1,2 -1,3 1,1 1,2 2,3 1,0 1,0 2,0 0,0 1,0 1,-1 1,0 2,-1 2,-3 0,0 0,0 0,-1 0,-1 0,-2 0,-2 -1,-1 -2,-2 -2,-2 -1,0 -1,0 -1,0z"/>
  <path class="fil3" d="M399 351c-1,0 -2,1 -2,2 -1,0 -1,1 -1,1 0,1 0,1 0,2 1,1 1,3 3,4 0,0 0,0 1,0 0,0 0,0 0,0 0,0 1,0 1,0 0,0 0,0 1,0 0,-1 1,-2 1,-3 0,0 0,-1 0,-2 -1,-2 -2,-3 -3,-4 -1,0 -1,0 -1,0l0 0z"/>
  <path class="fil3" d="M413 358c-1,1 -2,1 -3,3 0,0 0,1 0,2 0,0 0,0 0,1 0,0 0,0 0,0 0,1 1,2 1,2 1,1 1,1 1,1 1,0 2,-1 3,-2 0,0 1,-2 1,-3 0,0 0,-1 0,-1 0,-1 -1,-2 -1,-3 -1,0 -1,0 -2,0l0 0z"/>
  <path class="fil3" d="M393 359c-1,0 -1,1 -2,1 0,1 0,1 0,1 0,2 1,3 1,4 1,1 2,2 3,2 1,0 1,0 2,-1 0,0 1,-1 1,-2 0,0 0,-1 0,-1 -1,-1 -1,-3 -2,-3 -1,-1 -1,-1 -2,-1 0,0 0,0 -1,0l0 0z"/>
  <path class="fil3" d="M403 364c0,0 -1,0 -2,0 -1,1 -2,1 -2,2 -2,2 -3,4 -3,6 0,0 0,0 0,0 0,0 0,1 0,1 0,1 1,2 2,2 0,0 1,0 1,0 1,0 1,0 2,-1 2,0 2,0 3,0 0,0 1,0 1,0 1,0 1,0 2,0 1,1 2,1 2,1 1,0 3,0 3,-1 0,-1 1,-1 0,-2 0,-1 0,-2 -1,-3 -1,-2 -2,-3 -3,-4 -1,-1 -2,-1 -3,-1 -1,0 -1,0 -2,0z"/>
  <path class="fil3" d="M436 296c-1,0 -2,1 -3,3 0,1 0,2 0,3 0,1 1,2 2,3 0,0 1,0 1,0 1,0 1,-1 2,-1 1,-1 1,-2 1,-3 0,-1 0,-1 0,-1 0,-1 0,-2 0,-3 0,0 -1,-1 -2,-1 0,0 -1,0 -1,0z"/>
  <path class="fil3" d="M427 296c-1,0 -1,1 -2,1 0,1 0,1 0,2 0,0 0,1 0,1 0,2 1,4 2,4 0,1 1,1 1,1 0,0 0,0 1,0 0,0 0,0 0,0 1,0 1,-1 1,-1 1,0 1,-1 1,-2 0,-1 0,-2 0,-2 0,-2 -1,-4 -3,-4 0,0 -1,0 -1,0l0 0z"/>
  <path class="fil3" d="M442 303c-1,0 -2,1 -3,2 0,1 -1,2 -1,2 0,1 0,1 0,1 0,1 0,1 0,1 1,1 1,2 2,2 0,0 0,0 1,0 1,0 1,0 2,-1 1,-1 1,-2 2,-3 0,0 0,-1 0,-1 0,-1 -1,-3 -2,-3 0,0 -1,0 -1,0l0 0z"/>
  <path class="fil3" d="M422 303c-1,1 -2,1 -2,2 0,0 0,1 0,1 0,1 0,3 1,4 1,1 1,1 2,2 1,0 2,0 2,-1 1,-1 1,-1 1,-2 0,-1 0,-1 0,-1 0,-2 -1,-3 -2,-4 0,0 -1,0 -1,0 -1,-1 -1,-1 -1,-1l0 0z"/>
  <path class="fil3" d="M432 308c-1,0 -1,1 -2,1 -1,0 -2,1 -3,2 -1,2 -2,3 -2,5 0,0 0,0 -1,1 0,0 0,1 1,1 0,1 0,1 1,2 1,0 1,0 2,0 0,0 1,-1 2,-1 1,0 2,-1 3,-1 0,0 0,0 0,0 1,0 2,1 3,1 1,0 1,1 2,1 1,0 2,0 3,-1 0,-1 0,-2 0,-2 0,-1 -1,-2 -1,-3 -2,-2 -3,-3 -4,-4 -1,-1 -2,-2 -3,-2 0,0 -1,0 -1,0z"/>
  <path class="fil3" d="M62 238c-2,1 -3,2 -4,3 0,1 0,2 0,3 0,1 1,3 2,3 1,0 1,0 2,0 0,0 1,0 1,0 1,-1 1,-2 2,-4 0,0 0,0 0,-1 0,-1 0,-1 -1,-2 0,-1 -1,-2 -2,-2 0,0 0,0 0,0z"/>
  <path class="fil3" d="M52 238c0,0 -1,1 -1,2 -1,0 -1,1 -1,2 0,0 0,0 0,1 0,1 1,3 2,4 1,0 1,0 1,0 1,0 1,0 1,0 0,0 0,0 1,0 0,0 0,0 1,0 0,-1 1,-2 1,-3 0,0 0,-1 0,-2 -1,-2 -2,-3 -4,-4 0,0 0,0 -1,0l0 0z"/>
  <path class="fil3" d="M67 245c-1,1 -2,2 -3,3 0,1 0,1 0,2 0,0 0,0 0,1 0,0 0,0 0,1 0,0 0,1 1,1 0,1 1,1 1,1 1,0 2,-1 2,-2 1,0 2,-1 2,-3 0,0 0,-1 0,-1 0,-1 -1,-2 -2,-2 0,-1 0,-1 -1,-1l0 0z"/>
  <path class="fil3" d="M47 246c-1,0 -1,1 -2,1 0,1 0,1 0,2 0,1 0,2 1,3 1,1 2,2 3,2 0,0 1,0 2,-1 0,0 1,-1 1,-2 0,0 0,-1 -1,-1 0,-1 0,-2 -1,-3 -1,-1 -2,-1 -2,-1 0,0 -1,0 -1,0l0 0z"/>
  <path class="fil3" d="M57 251c0,0 -1,0 -2,0 -1,1 -2,1 -2,2 -2,2 -3,4 -3,6 0,0 0,0 0,0 0,0 0,1 0,2 0,0 1,1 1,1 1,0 2,0 2,0 1,0 1,0 2,0 2,-1 2,-1 3,-1 0,0 0,0 1,0 0,0 1,0 2,0 1,1 2,1 2,1 1,1 3,0 3,-1 0,0 0,-1 0,-2 0,-1 -1,-2 -1,-3 -1,-2 -2,-3 -4,-4 -1,-1 -1,-1 -3,-1 0,0 0,0 -1,0z"/>
  <path class="fil3" d="M446 238c-1,0 -3,2 -3,3 0,1 0,2 0,3 0,1 0,2 1,3 1,0 2,0 2,0 1,0 1,0 1,-1 1,0 2,-2 2,-3 0,0 0,0 0,-1 0,-1 0,-2 0,-2 -1,-1 -1,-2 -2,-2 0,0 -1,0 -1,0z"/>
  <path class="fil3" d="M437 238c-1,0 -2,1 -2,2 0,0 0,1 0,1 0,1 0,1 0,2 0,1 1,3 2,4 0,0 0,0 1,0 0,0 0,0 0,0 1,0 1,0 1,0 0,0 1,0 1,-1 1,0 1,-1 1,-2 0,-1 0,-1 0,-2 0,-2 -2,-3 -3,-4 0,0 -1,0 -1,0l0 0z"/>
  <path class="fil3" d="M452 245c-2,0 -3,1 -3,3 -1,0 -1,1 -1,2 0,0 0,0 0,0 0,1 0,1 0,1 0,1 1,2 1,2 1,0 1,1 1,1 1,-1 2,-1 3,-2 1,-1 1,-2 1,-3 0,0 0,-1 0,-1 0,-1 0,-2 -1,-3 -1,0 -1,0 -1,0l0 0z"/>
  <path class="fil3" d="M431 246c0,0 -1,1 -1,1 0,1 -1,1 -1,1 0,2 1,3 2,4 0,1 1,2 2,2 1,0 2,0 2,-1 1,0 1,-1 1,-2 0,-1 0,-1 0,-1 0,-1 -1,-3 -2,-3 -1,-1 -1,-1 -2,-1 0,0 0,0 -1,0l0 0z"/>
  <path class="fil3" d="M442 251c-1,0 -2,0 -2,0 -1,1 -2,1 -3,2 -1,2 -2,4 -3,5 0,1 0,1 0,1 0,0 0,1 0,1 1,1 1,2 2,2 0,0 1,0 2,0 0,0 1,0 2,-1 1,0 1,0 2,0 1,0 1,0 1,0 1,0 1,0 3,0 1,1 1,1 1,1 2,0 3,0 4,-1 0,-1 0,-1 0,-2 -1,-1 -1,-2 -2,-3 -1,-2 -2,-3 -3,-4 -1,-1 -2,-1 -3,-1 0,0 -1,0 -1,0z"/>
  <path class="fil2" d="M129 405l6 4 8 -12 5 4 3 -5 -15 -10 -3 4 5 4 -9 11zm13 9l14 9 3 -5 -9 -5 1 -2 8 5 3 -5 -9 -4 1 -2 9 5 3 -5 -14 -8 -10 17zm16 10l6 2 2 -5 2 1 1 6 6 3 -1 -7c3,-1 5,-2 6,-4l0 0c1,-2 1,-4 0,-5 0,-2 -2,-4 -5,-5l-9 -4 -8 18zm10 -7l2 -4 2 2c2,0 2,1 2,2l0 0c-1,1 -2,2 -3,1l-3 -1zm9 15l16 6 2 -5 -10 -4 1 -2 9 3 2 -4 -9 -3 0 -2 10 3 2 -5 -16 -5 -7 18zm26 8c6,2 10,0 10,-4l0 0c1,-4 -2,-6 -6,-8 -2,-1 -3,-1 -3,-2l0 0c1,-1 1,-1 2,-1 2,1 4,2 5,4l4 -4c-1,-2 -4,-4 -8,-5 -5,-1 -8,1 -9,5l0 0c-1,4 2,6 6,8 2,1 3,1 3,2l0 0c0,1 -1,1 -2,0 -2,0 -5,-1 -6,-3l-5 3c2,3 6,5 9,5zm21 4c6,1 11,-3 12,-8l0 0c0,-6 -4,-11 -10,-12 -6,-1 -11,3 -12,9l0 0c0,6 4,11 10,11zm0 -5c-2,-1 -3,-3 -3,-5l0 0c0,-3 2,-5 4,-4 3,0 4,2 4,5l0 0c0,2 -2,4 -5,4zm0 -16l5 0 4 -2 -6 -3 -3 5zm12 23l7 0 0 -6 2 0c5,1 9,-2 9,-7l0 0c0,-4 -4,-7 -9,-7l-9 0 0 20zm7 -10l0 -5 2 0c1,0 2,1 2,3l0 0c0,1 -1,2 -2,2l-2 0zm22 10c6,-1 11,-6 10,-11l0 0c0,-6 -5,-10 -11,-10 -6,1 -11,6 -10,11l0 0c0,6 5,10 11,10zm0 -6c-3,0 -4,-2 -5,-4l0 0c0,-3 2,-5 4,-5 3,0 4,2 5,4l0 0c0,3 -2,5 -4,5zm13 4l15 -3 -1 -5 -9 1 -2 -14 -7 2 4 19zm17 -3l6 -2 -4 -19 -7 2 5 19zm17 -5c5,-1 7,-5 6,-9l0 0c-2,-3 -5,-4 -10,-3 -2,0 -3,0 -3,0l0 0c0,-1 0,-1 1,-2 2,0 4,0 6,0l2 -5c-3,-1 -6,-1 -10,0 -5,2 -7,6 -5,9l0 0c1,4 5,4 9,4 3,-1 3,-1 3,0l0 0c1,1 0,1 -1,1 -2,1 -5,1 -7,0l-2 5c3,2 7,2 11,0zm13 -11l9 -4 -2 -5 -9 4 2 5zm20 -3l5 -3 -3 -5 2 -1 6 3 6 -4 -7 -3c1,-2 2,-5 0,-7l0 0c-1,-2 -2,-3 -4,-3 -1,-1 -4,-1 -7,1l-8 5 10 17zm0 -12l-2 -4 3 -1c1,-1 2,-1 3,0l0 0c0,1 0,3 -1,3l-3 2zm22 -1c1,-2 3,-4 3,-5 0,-2 0,-4 -2,-6l-7 -10 -5 3 7 10c1,2 1,3 0,3 -1,1 -2,1 -3,0l-2 6c3,1 5,1 9,-1z"/>
  <path class="fil4" d="M153 51c6,-3 8,-8 8,-12l-9 -1c0,3 0,5 -3,6 -3,1 -6,0 -7,-3l0 0c-2,-3 -1,-7 1,-8 3,-1 5,-1 7,0l4 -7c-4,-3 -9,-4 -14,-1 -8,4 -11,13 -7,20l0 0c4,8 13,10 20,6zm37 -14c9,-2 13,-11 11,-18l0 0c-2,-8 -10,-13 -18,-10 -9,2 -13,10 -11,18l0 0c2,8 10,12 18,10zm-2 -8c-3,1 -6,-1 -7,-5l0 0c-1,-3 0,-6 4,-7 3,-1 6,1 7,4l0 0c1,3 0,7 -4,8zm31 1l10 -1 -1 -8 3 0c8,0 12,-4 12,-11l0 0c-1,-7 -6,-10 -13,-9l-13 1 2 28zm8 -15l0 -6 3 -1c2,0 4,1 4,3l0 0c0,2 -2,3 -4,4l-3 0zm31 13l16 1c7,1 11,-2 11,-7l0 0c0,-4 -2,-6 -5,-7 3,-1 5,-3 5,-6l0 0c0,-2 0,-4 -1,-5 -2,-1 -4,-3 -8,-3l-16 -1 -2 28zm10 -16l1 -4 4 0c2,0 3,1 3,2l0 0c0,2 -1,2 -3,2l-5 0zm0 10l0 -5 5 1c2,0 3,1 3,2l0 0c0,1 -2,2 -4,2l-4 0zm30 11l23 7 2 -8 -14 -4 1 -3 13 4 2 -7 -14 -3 1 -3 14 4 3 -8 -24 -6 -7 27zm35 10l9 5 3 -3 8 5 0 4 9 4 2 -30 -8 -5 -23 20zm17 -3l5 -5 -1 8 -4 -3z"/>
  <path class="fil4" d="M70 74c-5,5 -5,10 -4,15l9 -3c-1,-2 -1,-4 1,-6 2,-2 5,-2 8,0l0 0c2,3 3,6 1,8 -2,2 -4,2 -6,2l-2 9c4,1 9,0 14,-5 5,-6 5,-15 -1,-21l0 0c-6,-6 -15,-5 -20,1zm-20 23c-5,7 -4,16 2,21l0 0c7,5 16,4 21,-3 6,-7 5,-16 -2,-21l0 0c-6,-5 -15,-4 -21,3zm7 5c2,-3 6,-3 8,-1l0 0c3,2 4,6 2,9 -3,3 -6,3 -9,0l0 0c-3,-2 -4,-5 -1,-8zm-25 23c-5,8 -2,17 5,21l0 0c7,4 16,1 20,-6 4,-8 2,-17 -5,-21l0 0c-7,-4 -16,-2 -20,6zm7 4c2,-3 5,-3 8,-2l0 0c3,2 5,5 3,8 -2,4 -6,4 -9,2l0 0c-3,-1 -4,-5 -2,-8zm-16 13l-3 9 7 3 -1 2 -9 2 -4 10 11 -3c1,4 2,7 6,8l0 0c3,2 5,2 8,1 2,-2 4,-4 6,-9l5 -12 -26 -11zm10 14l6 2 -2 4c-1,2 -2,3 -4,3l0 -1c-1,0 -2,-2 -1,-4l1 -4zm-20 14l-3 10c-3,11 1,18 9,20l0 0c8,3 15,-1 18,-12l3 -10 -27 -8zm5 11l11 3 0 2c-1,4 -4,6 -8,5l0 0c-4,-1 -5,-4 -4,-8l1 -2zm-14 19l-3 24 8 1 2 -15 3 1 -2 13 7 1 2 -14 3 1 -2 14 7 1 3 -24 -28 -3zm-3 28l0 9 13 0 -14 10 0 9 28 1 1 -10 -13 0 13 -10 0 -8 -28 -1zm-1 30l1 10 4 1 1 10 -3 2 1 10 27 -15 -1 -10 -30 -8zm12 13l7 1 -6 4 -1 -5zm-7 22l2 10c2,11 9,16 18,14l0 0c8,-2 12,-9 9,-20l-2 -10 -27 6zm10 7l11 -2 0 1c1,5 0,8 -4,9l0 0c-4,0 -6,-2 -7,-6l0 -2zm2 37c3,8 11,12 19,9l0 0c8,-3 11,-11 8,-19 -3,-8 -12,-12 -19,-9l0 0c-8,3 -11,11 -8,19zm7 -3c-1,-3 1,-6 4,-7l0 0c3,-2 7,-1 8,3 2,3 0,6 -3,8l-1 0c-3,1 -6,0 -8,-4zm1 21l4 8 7 -4 1 2 -5 9 5 9 6 -10c3,2 6,3 10,1l0 0c2,-1 4,-3 5,-5 1,-3 0,-6 -2,-11l-6 -12 -25 13zm17 1l5 -2 2 4c1,2 1,3 -1,4l0 0c-2,1 -3,0 -4,-2l-2 -4zm-3 25l5 8 24 -15 -5 -8 -24 15zm6 10l7 8 3 -2 7 8 -2 4 6 8 15 -27 -6 -7 -30 8zm17 4l7 -2 -4 6 -3 -4zm13 31l8 6c8,8 16,7 22,1l0 0c5,-7 5,-15 -4,-22l-8 -7 -18 22zm12 -1l8 -8 1 1c3,2 4,6 1,9l0 0c-2,3 -5,2 -9,0l-1 -2zm11 21l20 14 5 -7 -13 -8 2 -3 11 8 4 -5 -11 -8 2 -3 12 9 4 -6 -19 -14 -17 23zm32 20l9 5 3 -7 3 1c7,4 13,3 16,-3l0 0c3,-6 0,-12 -7,-15l-11 -6 -13 25zm15 -8l3 -6 2 1c2,2 3,3 2,5l0 0c-1,2 -2,2 -5,1l-2 -1zm11 21l9 3 2 -8 2 1 3 9 10 4 -3 -11c3,-1 6,-3 8,-7l0 0c1,-3 0,-5 -1,-7 -1,-3 -4,-5 -8,-6l-13 -5 -9 27zm13 -11l2 -5 4 1c2,1 3,2 2,4l0 0c0,1 -2,2 -4,1l-4 -1zm29 24c9,2 17,-3 19,-11l0 0c1,-8 -4,-16 -12,-17 -8,-2 -16,2 -18,10l0 0c-2,8 3,16 11,18zm2 -8c-3,-1 -5,-4 -4,-8l0 0c1,-3 4,-5 7,-4 4,0 5,4 4,7l0 0c0,3 -3,6 -7,5zm23 11l9 1 2 -20 8 1 1 -8 -26 -2 -1 8 9 0 -2 20zm21 2l24 -1 0 -7 -15 0 0 -3 14 0 -1 -7 -13 0 0 -3 14 0 0 -8 -24 1 1 28zm42 4l1 -6c6,-2 9,-5 11,-9l-9 -3c-1,2 -2,3 -5,4 -3,0 -5,-2 -6,-6l0 0c0,-3 2,-6 5,-7 3,0 4,1 5,3l8 -5c-3,-4 -8,-7 -14,-6 -8,1 -14,8 -13,16l0 0c1,8 6,12 12,13l-2 4 7 2zm13 -8l9 -3 1 -4 9 -3 3 4 10 -3 -19 -24 -9 2 -4 31zm10 -14l1 -7 4 6 -5 1zm-7 -18c0,-1 0,-2 1,-2 1,-1 5,0 7,-1 3,0 4,-3 4,-7l-5 0c0,1 0,2 -1,2 -1,0 -5,0 -7,1 -3,0 -4,2 -3,7l4 0zm43 18c8,-3 12,-12 9,-19l0 0c-3,-8 -12,-12 -20,-9 -8,4 -12,12 -9,20l0 0c3,7 12,11 20,8zm-3 -8c-3,1 -7,-1 -8,-4l0 0c-1,-3 0,-6 3,-8 4,-1 7,1 8,4l0 0c1,3 0,7 -3,8zm29 -5l21 -13 -5 -6 -12 8 -2 -3 12 -7 -4 -6 -11 7 -2 -2 13 -8 -5 -6 -20 12 15 24zm32 -21l12 -10c5,-5 6,-10 3,-13l0 0c-3,-3 -6,-3 -9,-1 1,-3 1,-6 -1,-9l0 0c-1,-1 -3,-2 -4,-2 -2,0 -5,1 -8,4l-12 10 19 21zm-4 -19l-3 -3 3 -2c2,-2 3,-2 4,-1l0 0c1,1 0,2 -1,4l-3 2zm6 8l-3 -3 4 -4c2,-1 3,-1 4,0l0 0c0,1 0,2 -1,4l-4 3zm20 -8l17 -18 -6 -5 -10 11 -2 -3 9 -10 -5 -4 -9 10 -2 -2 10 -11 -6 -5 -16 17 20 20zm19 -21l5 -7 -11 -8 12 0 0 0 -4 -11 11 8 5 -8 -22 -16 -6 8 4 11 -11 -1 -6 8 23 16zm12 -34l7 -12 -6 -3 -7 12 6 3zm17 -11l10 -22 -7 -3 -6 14 -3 -1 6 -13 -7 -3 -5 13 -3 -1 6 -14 -7 -3 -10 22 26 11zm15 -36c3,-8 1,-13 -5,-15l0 0c-5,-2 -9,2 -12,8 -2,3 -2,3 -3,3l0 0c-1,0 -1,-1 -1,-2 1,-3 3,-5 6,-7l-5 -7c-3,3 -6,6 -8,11 -2,8 1,13 6,15l0 0c5,1 9,-3 12,-9 2,-2 2,-3 3,-3l0 0c1,0 1,1 1,3 -2,3 -4,6 -7,8l4 7c4,-3 8,-7 9,-12zm6 -22l2 -9 -20 -4 2 -9 -8 -1 -6 25 8 2 2 -8 20 4zm3 -15l1 -10 -4 -1 1 -10 4 -1 1 -11 -29 10 -1 9 27 14zm-9 -14l-7 -3 7 -2 0 5zm12 -21l0 -9 -8 0 0 -2 7 -5 0 -11 -9 7c-2,-4 -5,-6 -9,-6l0 0c-3,0 -5,1 -7,3 -2,2 -3,5 -3,10l1 14 28 -1zm-15 -9l-6 0 0 -4c0,-2 1,-3 3,-3l0 0c2,0 3,1 3,3l0 4zm13 -29l-2 -10 -4 0 -2 -10 4 -2 -2 -10 -26 17 2 9 30 6zm-13 -11l-7 -2 6 -3 1 5zm6 -23l-3 -9 -12 4 8 -14 -2 -8 -27 9 3 9 12 -4 -9 14 3 8 27 -9zm-11 -31l-4 -8 -26 11 4 9 26 -12zm-5 -13l-5 -8 -12 7 5 -10 0 0 -12 -1 12 -7 -4 -8 -25 14 5 9 12 0 -6 10 5 9 25 -15zm-18 -29l-6 -8 -4 1 -6 -7 2 -4 -6 -8 -15 27 6 7 29 -8zm-16 -4l-7 2 3 -6 4 4zm-6 -23l-15 -17 -6 6 9 9 -15 14 7 7 20 -19z"/>
  <path class="fil1" d="M110 53c4,0 8,4 8,8 0,4 -4,8 -8,8 -4,0 -8,-4 -8,-8 0,-4 4,-8 8,-8z"/>
  <path class="fil1" d="M389 53c5,0 8,4 8,8 0,4 -3,8 -8,8 -4,0 -8,-4 -8,-8 0,-4 4,-8 8,-8z"/>
 </g>
</svg>
